HIERARCHY
ROOT Hips
{
  OFFSET 0 0 0
  CHANNELS 6 Xposition Yposition Zposition Zrotation Yrotation Xrotation
  JOINT LeftThigh
  {
    OFFSET 8.409438 0 -5.917753
    CHANNELS 3 Zrotation Yrotation Xrotation
    JOINT LeftLeg
    {
      OFFSET 0 0 -42.358652
      CHANNELS 3 Zrotation Yrotation Xrotation
      JOINT LeftFoot
      {
        OFFSET 0 0 -39.357303
        CHANNELS 3 Zrotation Yrotation Xrotation
      }
    }
  }
  JOINT RightThigh
  {
    OFFSET -8.409438 0 -5.917753
    CHANNELS 3 Zrotation Yrotation Xrotation
    JOINT RightLeg
    {
      OFFSET 0 0 -42.358652
      CHANNELS 3 Zrotation Yrotation Xrotation
      JOINT RightFoot
      {
        OFFSET 0 0 -39.357303
        CHANNELS 3 Zrotation Yrotation Xrotation
      }
    }
  }
  JOINT SpineLow
  {
    OFFSET 0 0 4.719101
    CHANNELS 3 Zrotation Yrotation Xrotation
    JOINT SpineMid
    {
      OFFSET 0 0 12.899191
      CHANNELS 3 Zrotation Yrotation Xrotation
      JOINT Chest
      {
        OFFSET 0 0 12.899191
        CHANNELS 3 Zrotation Yrotation Xrotation
        JOINT LeftShoulder
        {
          OFFSET 7.550562 1.41573 9.438202
          CHANNELS 3 Zrotation Yrotation Xrotation
          JOINT LeftArm
          {
            OFFSET 9.155056 0 4.247191
            CHANNELS 3 Zrotation Yrotation Xrotation
            JOINT LeftForearm
            {
              OFFSET 0 0 25.771955
              CHANNELS 3 Zrotation Yrotation Xrotation
              JOINT LeftHand
              {
                OFFSET 0 0 25.197169
                CHANNELS 3 Zrotation Yrotation Xrotation
              }
            }
          }
        }
        JOINT RightShoulder
        {
          OFFSET -7.550562 1.41573 9.438202
          CHANNELS 3 Zrotation Yrotation Xrotation
          JOINT RightArm
          {
            OFFSET -9.155056 0 4.247191
            CHANNELS 3 Zrotation Yrotation Xrotation
            JOINT RightForearm
            {
              OFFSET 0 0 -25.771955
              CHANNELS 3 Zrotation Yrotation Xrotation
              JOINT RightHand
              {
                OFFSET 0 0 -25.197169
                CHANNELS 3 Zrotation Yrotation Xrotation
              }
            }
          }
        }
        JOINT Neck
        {
          OFFSET 0 0 15.101124
          CHANNELS 3 Zrotation Yrotation Xrotation
          JOINT Head
          {
            OFFSET 0 0 11.325843
            CHANNELS 3 Zrotation Yrotation Xrotation
            End Site
            {
              OFFSET 0 0 14.157303
            }
          }
        }
      }
    }
  }
}
MOTION
Frames: 11
Frame Time: 0.0
0.0  101.685394  0.0  3.326908  45.487097  -93.239902  2.158546  -17.528949  -9.816562  -18.690212  14.541659  23.366148  1.93793  1.049025  3.354041  -22.477182  15.51727  -1.538919  -14.546997  10.066347  25.097218  -3.824031  3.992469  -3.831436  -2.304268  0.835845  1.786721  -6.235396  2.451029  4.801119  -6.235396  2.451029  4.801119  -5.943304  21.580403  8.190482  141.00366  32.897802  -156.468869  -14.407744  -1.977405  121.009686  95.021327  16.32282  -10.098315  -0.256435  1.011143  20.73017  75.648209  22.391645  19.554067  -62.653022  29.635595  -97.664703  85.80055  18.312813  5.751147  -3.99044  -0.952513  -2.823076  -2.997237  -0.696004  -2.123585  
0.0  101.685394  0.0  3.098141  49.151091  -93.27889  0.599242  -17.427312  -9.834505  -20.233829  14.413232  22.379326  1.505498  0.870513  3.30755  -23.416686  15.415037  -0.59256  -15.874546  10.198385  24.816868  -3.652376  3.926947  -3.872396  -1.667364  0.78337  1.998763  -4.490887  2.27616  5.408382  -4.490887  2.27616  5.408382  -6.052357  20.608132  8.077623  138.93353  32.413704  -161.477633  -13.159882  -1.768186  122.580066  92.088809  14.754397  -10.575009  -0.536058  1.27121  18.643886  77.113868  23.972126  20.81001  -62.498486  29.391699  -97.590874  89.751501  18.257916  8.730222  -7.924987  -1.431102  -3.556752  -5.951998  -1.027449  -2.686523  
0.0  101.685394  0.0  3.03566  52.450191  -93.374912  -1.391071  -16.970111  -9.623959  -21.383075  14.071291  21.70202  1.08685  0.713557  3.203995  -24.274087  15.488236  0.076704  -16.585283  10.257492  24.961989  -3.780776  3.977808  -3.91789  -1.227624  0.810942  2.387048  -3.273062  2.334607  6.484123  -3.273063  2.334607  6.484124  -5.610515  19.427059  6.491256  137.004653  31.215578  -167.400798  -15.818397  0.173523  123.45246  91.745758  11.069012  -7.846155  1.210902  0.635328  14.830749  79.061476  25.910997  23.817598  -63.556022  31.308131  -97.77347  91.886018  18.683326  10.358041  -11.036702  -2.409306  -4.724832  -8.295521  -1.722439  -3.588026  
0.0  101.685394  0.0  3.439798  55.10412  -93.178746  -3.583708  -16.073979  -9.142432  -21.937995  13.511588  21.202037  1.033365  0.612026  3.200854  -25.066214  15.884612  0.38415  -16.749906  10.156264  25.404059  -4.250142  4.108963  -3.99081  -0.805156  0.861827  2.69466  -2.102575  2.441726  7.33901  -2.102575  2.441726  7.339009  -5.210959  18.377826  4.963723  135.952253  29.991686  -172.876166  -15.549464  3.161011  123.659273  91.698883  6.716909  -9.732202  4.324724  -0.694515  10.057702  81.743978  27.130603  29.387774  -65.431259  33.562902  -97.703446  93.390666  19.21405  11.493495  -13.756056  -3.233862  -5.455177  -10.344149  -2.304211  -4.165669  
0.0  101.685394  0.0  4.337769  56.754642  -92.700036  -5.74244  -15.012598  -8.387672  -21.47379  12.966308  20.882031  1.852671  0.319266  3.50232  -25.690908  16.564332  0.384861  -16.411501  9.899746  25.993763  -5.012799  4.276188  -4.071624  -0.344953  0.810514  2.891429  -0.844811  2.252984  7.894498  -0.844811  2.252984  7.894498  -5.2648  18.878801  5.220595  136.348179  30.273236  -177.023671  -15.812038  6.369173  123.373913  90.006569  1.647952  -11.966482  7.141252  -0.860446  5.727588  86.664361  27.852546  36.521684  -67.353368  36.026085  -97.2786  93.96198  20.283258  12.820791  -16.066982  -3.220992  -5.847271  -12.079186  -2.264103  -4.472746  
0.0  101.685394  0.0  5.370206  57.110605  -92.077693  -7.330404  -14.194616  -7.782578  -20.030439  12.703056  20.942911  1.528596  0.317389  3.448044  -25.874391  17.219653  -0.042122  -16.013058  9.67233  26.640065  -5.739341  4.49198  -4.129561  -0.001333  0.822017  2.927611  0.095832  2.243277  8.005121  0.095832  2.243277  8.005121  -3.928019  19.491213  5.789522  137.039043  29.790006  178.785978  -17.401065  9.433574  123.308592  86.803397  -3.07753  -12.508083  10.434079  -0.254195  4.684916  93.83398  30.394825  44.193558  -68.633243  38.660323  -96.755847  93.206871  21.818606  14.496224  -17.10553  -2.794216  -5.676944  -12.853863  -1.938728  -4.339187  
0.0  101.685394  0.0  5.836709  56.408273  -91.574054  -7.886229  -13.917529  -7.74935  -18.561158  12.827394  21.312615  1.234387  0.360621  3.237971  -26.06986  17.430211  -1.095096  -15.723897  9.689169  27.303399  -5.671899  4.888327  -4.236008  0.448358  0.837795  2.796573  1.320941  2.234601  7.662087  1.320941  2.234601  7.662087  -2.707444  19.602729  6.498902  138.276747  28.255706  174.739263  -17.264001  12.629868  124.844546  84.918077  -6.912608  -13.383804  12.840333  -0.333045  4.371261  103.153365  32.14019  53.985817  -68.648081  40.91992  -95.866105  91.907234  23.22868  16.723308  -17.929794  -2.054342  -5.071596  -13.46404  -1.393442  -3.867559  
0.0  101.685394  0.0  5.769272  55.457141  -91.45031  -7.988696  -13.94372  -7.912567  -17.61678  13.202412  21.828025  1.241756  0.524349  2.88798  -27.163711  17.540178  -2.437243  -15.318189  10.110989  27.879917  -4.596121  5.129932  -4.323167  1.062869  0.808229  2.556811  2.987842  2.093577  7.024942  2.987842  2.093577  7.024942  -2.797865  19.810892  9.050639  140.422184  27.126999  171.863083  -17.202261  15.825252  126.337486  83.927756  -10.551256  -12.934416  13.042923  -0.286557  6.474287  114.11131  34.688856  65.428583  -67.910912  41.844385  -95.957689  91.37116  23.717734  17.942158  -19.029257  -1.011233  -4.050293  -14.279013  -0.633002  -3.072684  
0.0  101.685394  0.0  5.938633  54.406153  -91.879682  -7.733465  -13.696659  -7.474314  -17.440188  13.680049  22.275229  1.737417  0.827069  2.590424  -28.807341  18.198  -3.363313  -14.369449  10.791457  28.424108  -3.250967  5.172092  -4.427139  1.843019  0.805917  2.547569  5.117596  2.004633  7.022292  5.117596  2.004633  7.022292  -5.019013  19.901792  11.072569  142.951616  25.579488  169.568912  -17.658705  18.15303  127.352843  82.990828  -13.098945  -12.244044  12.739042  -0.984903  9.001517  124.88886  36.843795  79.585375  -66.896745  42.080766  -96.562825  91.030816  24.526557  18.551309  -20.700501  -0.187599  -3.359763  -15.526954  -0.026859  -2.529626  
0.0  101.685394  0.0  6.588669  53.378135  -92.073331  -6.76637  -13.119374  -7.039051  -18.045417  14.076189  22.485752  2.42467  1.213244  2.436519  -30.968317  19.157806  -4.447408  -12.780156  11.417506  28.885498  -1.835608  5.104175  -4.479181  2.316911  0.772647  2.34289  6.402653  1.883218  6.472928  6.402653  1.883218  6.472928  -4.560246  19.70236  15.185815  144.734003  23.140066  168.624423  -17.747804  19.051819  128.269107  83.221741  -15.161181  -13.189456  15.069175  -3.376062  10.797833  133.750543  34.254709  93.816054  -66.308067  42.476143  -96.544833  90.690134  26.618076  19.239114  -21.342939  1.171934  -2.234238  -16.002627  0.958431  -1.637031  
0.0  101.685394  0.0  7.436636  51.796288  -91.718128  -4.355823  -12.618014  -7.009594  -19.040236  14.434932  22.508706  2.775585  1.533132  2.321077  -32.861404  19.915336  -5.996545  -10.659441  11.732604  29.246203  -0.825957  5.092396  -4.467475  2.745558  0.848165  2.35084  7.581239  2.045861  6.514444  7.581239  2.045861  6.514444  -2.807542  18.3634  17.868886  144.669357  20.174866  168.721056  -17.98764  20.355155  128.919415  86.317415  -17.120085  -15.00539  16.760187  -3.334525  11.03517  141.250884  31.283381  103.318933  -66.728038  44.108241  -96.238729  90.131082  28.168062  18.857801  -21.634293  1.638192  -2.177006  -16.219035  1.307723  -1.576944  
